<?xml version="1.0" encoding="UTF-8"?>
<svg width="300px" height="300px" viewBox="0 0 300 300" version="1.1" xmlns="http://www.w3.org/2000/svg" xmlns:xlink="http://www.w3.org/1999/xlink">
    <!-- Generator: Sketch 44.1 (41455) - http://www.bohemiancoding.com/sketch -->
    <title>logo ideÌe final</title>
    <desc>Created with Sketch.</desc>
    <defs></defs>
    <g id="Page-1" stroke="none" stroke-width="1" fill="none" fill-rule="evenodd">
        <path d="M172.843666,94.4296179 L157.862305,94.4296179 L126.350473,205.515929 L141.865234,205.515929 L172.843666,94.4446059 L203.822097,205.515929 L219.336858,205.515929 L187.825026,94.4296179 L172.843666,94.4296179 Z M150,300 C67.1572875,300 0,232.842712 0,150 C0,67.1572875 67.1572875,0 150,0 C232.842712,0 300,67.1572875 300,150 C300,232.842712 232.842712,300 150,300 Z M97,94 L97,109 L132,109 L132,94 L97,94 Z M82,94 L82,204 L97,204 L97,94 L82,94 Z" id="Combined-Shape" fill="#FFFFFF"></path>
    </g>
</svg>